<?xml version="1.0" encoding="UTF-8"?>
<svg xmlns="http://www.w3.org/2000/svg" width="264" height="162">
    <g fill="none" fill-rule="evenodd" opacity=".9">
        <path fill="#FFF"
              d="M250.634 161.357l12.866-9.607V.5H.5v151.75l9 6.704V42.5h39v112.6l4.393-3.73 7.607 5.33V42.5h155v110.85l9.75 8.03 13.917-10.02z"/>
        <path fill="#C8CCD1"
              d="M1 1v150.998l8 5.96V42h40v112.02l3.274-2.78.59-.5.632.442L60 155.738V42h156v111.1l9.257 7.66 13.295-9.57.645-.463.598.52 10.864 9.47L263 151.5V1H1zM0 0h264v152l-13.39 10-11.475-10-13.89 10L215 153.6V43H61v114.66L52.922 152 48 156.18V43H10v116.95L0 152.5V0z"/>
        <path fill="#EAECF0"
              d="M61 157.66V43h154v110.6l-2.145-1.6-12.555 10-13.81-10-14.228 10-12.972-10-12.973 10-13.81-10-12.137 10-13.39-10-14.23 10-12.972-10-12.974 10L61 157.66zM253 36c0-7.732-6.268-14-14-14s-14 6.268-14 14 6.268 14 14 14 14-6.268 14-14zM10 159.95V43h38v113.18L40.45 162l-13.812-10-13.89 10zM226 132.354V72h25v60.354h-25z"/>
        <path fill="#EDEEF2"
              d="M31.49 5h-26v6h26zM55.49 5h-22v6h22zM122 6v4h92V6h-92zm-1-1h94v6h-94V5zM79.49 5h-22v6h22zM102.49 5h-13v6h13zM87.49 5h-6v6h6zM110 5h-6v6h6zM255 5h-32v6h32z"/>
        <path fill="#EDEEF2" stroke="#EDEEF2" d="M262 14.5H2"/>
        <path fill="#EDEEF2" d="M212 7h-2v2h2z"/>
        <path fill="#EAECF0" d="M226 59v-5h25v5z"/>
        <path fill="#CED1D6" d="M216 42H60v10h156z"/>
        <path fill="#EAECF0" d="M158 44h-6v6h6z"/>
        <path fill="#36C" d="M166 44h-6v6h6z"/>
        <path fill="#EAECF0"
              d="M182 44h-6v6h6zM190 44h-6v6h6zM198 44h-6v6h6zM206 44h-6v6h6zM214 44h-6v6h6zM138 44h-6v6h6zM144 44h-6v6h6zM150 44h-6v6h6zM174 44h-6v6h6z"/>
        <path fill="#36C" d="M176 59h-74v74h74zM163 54l-4 5h8z"/>
        <g fill="#FFF" transform="matrix(-1 0 0 1 158 79)">
            <ellipse cx="36.5" cy="16.5" rx="6.5" ry="7.5"/>
            <path d="M21.8971 0c.6163 1.1033.9475 2.36.96 3.6429 0 4.0237-3.07 7.2857-6.8571 7.2857s-6.8571-3.262-6.8571-7.2857c.0125-1.283.3437-2.5396.96-3.6429H0v29.1429C0 31.8254 2.0467 34 4.5714 34H32V0H21.8971z"/>
        </g>
    </g>
</svg>
