<?xml version="1.0" encoding="UTF-8"?>
<svg xmlns="http://www.w3.org/2000/svg" width="264" height="162">
    <g fill="none" fill-rule="evenodd" opacity=".9">
        <path fill="#FFF"
              d="M13.366 161.357L.5 151.75V.5h263v151.75l-9 6.704V42.5h-39v112.6l-4.393-3.73-7.607 5.33V42.5h-155v110.85l-9.75 8.03-13.917-10.02z"/>
        <path fill="#C8CCD1"
              d="M263 1v150.998l-8 5.96V42h-40v112.02l-3.274-2.78-.59-.5-.632.442-6.504 4.556V42H48v111.1l-9.257 7.66-13.295-9.57-.645-.463-.598.52-10.864 9.47L1 151.5V1h262zm1-1H0v152l13.39 10 11.475-10 13.89 10L49 153.6V43h154v114.66l8.078-5.66 4.922 4.18V43h38v116.95l10-7.45V0z"/>
        <path fill="#EAECF0"
              d="M203 157.66V43H49v110.6l2.145-1.6L63.7 162l13.81-10 14.228 10 12.972-10 12.973 10 13.81-10 12.137 10 13.39-10 14.23 10 12.972-10 12.974 10 5.804-4.34zM11 36c0-7.732 6.268-14 14-14s14 6.268 14 14-6.268 14-14 14-14-6.268-14-14zM254 159.95V43h-38v113.18l7.55 5.82 13.812-10 13.89 10zM38 132.354V72H13v60.354h25z"/>
        <path fill="#EDEEF2" 
              d="M232.51 5h26v6h-26zM208.51 5h22v6h-22zM142 6v4H50V6h92zm1-1H49v6h94V5zM184.51 5h22v6h-22zM161.51 5h13v6h-13zM176.51 5h6v6h-6zM154 5h6v6h-6zM9 5h32v6H9z"/>
        <path fill="#EDEEF2" stroke="#EDEEF2" d="M2 14.5h260"/>
        <path fill="#EDEEF2" d="M52 7h2v2h-2z"/>
        <path fill="#EAECF0" d="M38 59v-5H13v5z"/>
        <path fill="#CED1D6" d="M48 42h156v10H48z"/>
        <path fill="#EAECF0" 
              d="M50 44h6v6h-6zM58 44h6v6h-6zM66 44h6v6h-6zM74 44h6v6h-6zM82 44h6v6h-6zM90 44h6v6h-6zM106 44h6v6h-6zM114 44h6v6h-6zM120 44h6v6h-6zM126 44h6v6h-6z"/>
        <path fill="#36C" d="M98 44h6v6h-6z"/>
        <path fill="#36C" d="M87 59h74v74H87zM101 54l4 5h-8z"/>
        <g fill="#FFF" transform="translate(105 79)">
            <ellipse cx="36.5" cy="16.5" rx="6.5" ry="7.5"/>
            <path d="M21.8971 0c.6163 1.1033.9475 2.36.96 3.6429 0 4.0237-3.07 7.2857-6.8571 7.2857s-6.8571-3.262-6.8571-7.2857c.0125-1.283.3437-2.5396.96-3.6429H0v29.1429C0 31.8254 2.0467 34 4.5714 34H32V0H21.8971z"/>
        </g>
    </g>
</svg>