<svg xmlns="http://www.w3.org/2000/svg" width="264" height="162" viewBox="0 0 264 162">
    <defs>
        <clipPath id="a">
            <path d="M0 0v152l12 10 12-10 12 10 12-10 12 10 12-10 12 10 12-10 12 10 12-10 12 10 12-10 12 10 12-10 12 10 12-10 12 10 12-10 12 10 12-10 12 10 12-10V0z"/>
        </clipPath>
    </defs>
    <g clip-path="url(#a)" transform="matrix(-1 0 0 1 264 0)" fill="#eaecf0">
        <path d="M0 0h264v162H0" fill="#fff"/>
        <path d="M11 22c0-8 6-14 14-14s14 6 14 14-6 14-14 14-14-6-14-14m27 23v-5H13v5h25M38 163V58H13v106h25M233 5h26v6h-26zm-24 0h22v6h-22zm-24 0h22v6h-22zm-23 0h13v6h-13zm15 0h6v6h-6zm-23 0h6v6h-6z"/>
        <g>
            <path d="M258 16v4h-92v-4h92m1-1h-94v6h94z"/>
            <path d="M168 17h2v2h-2z"/>
        </g>
        <path d="M252 162V29H48v133z"/>
        <path d="M0 0v162h264V0zm1 1h262v150.53l-11 9.17-12-10-12 10-12-10-12 10-12-10-12 10-12-10-12 10-12-10-12 10-12-10-12 10-12-10-12 10-12-10-12 10-12-10-12 10-12-10-12 10-11-9z"/>
    </g>
    <path d="M216 29H12v10h204z" fill="#ced1d6"/>
    <path d="M214 31h-6v6h6zm-8 0h-6v6h6zm-8 0h-6v6h6zm-8 0h-6v6h6zm-8 0h-6v6h6zm-8 0h-6v6h6zm-16 0h-6v6h6zm-8 0h-6v6h6zm-6 0h-6v6h6zm-6 0h-6v6h6z" fill="#eaecf0"/>
    <path d="M166 31h-6v6h6zM177 46h-74v74h74zm-14-5l-4 5h8z" fill="#36c"/>
    <g transform="matrix(-1 0 0 1 159 66)" fill="#fff">
        <ellipse cx="36.5" cy="16.5" rx="6.5" ry="7.5"/>
        <path d="M21.9 0c.61 1.1.94 2.36.96 3.64 0 4.03-3.07 7.29-6.86 7.29-3.79 0-6.86-3.26-6.86-7.29.02-1.28.35-2.54.96-3.64H0v29.14C0 31.83 2.05 34 4.57 34H32V0z"/>
    </g>
</svg>
